<?xml version="1.0" encoding="utf-8"?>
<!-- Generator: Adobe Illustrator 22.0.1, SVG Export Plug-In . SVG Version: 6.00 Build 0)  -->
<svg version="1.1" xmlns="http://www.w3.org/2000/svg" xmlns:xlink="http://www.w3.org/1999/xlink" x="0px" y="0px"
	 viewBox="0 0 85 85" style="enable-background:new 0 0 85 85;" xml:space="preserve">
<style type="text/css">
	.st0{fill:#2B4357;}
	.st1{fill:#00B48D;}
	.st2{fill:#FFFFFF;}
</style>
<g id="Layer_1">
	<path class="st0" d="M85,85H0V0h85V85z"/>
	<path id="element_2_" class="st1" d="M11.6,11.7V17l0,0h18.5v-5.3H11.6z M28.9,15.9H12.7v-3h16.2V15.9z"/>
	<path class="st2" d="M15,28.1v0.6h-2.6v1.6h2.4V31h-2.4v1.8H15v0.6h-3.4v-5.3H15z M16.8,33.4h-0.7v-3.9h0.7v0.7
		c0.3-0.5,0.7-0.8,1.3-0.8c0.9,0,1.4,0.6,1.4,1.5v2.5h-0.7v-2.5c0-0.5-0.3-0.8-0.9-0.8c-0.5,0-1,0.3-1.1,0.8V33.4z M22.5,33.5
		c-1,0-1.4-0.4-1.4-1.2v-2.2h-0.8v-0.6h0.8v-1h0.7v1h1.1v0.6h-1.1v2.1c0,0.5,0.3,0.6,0.7,0.6c0.1,0,0.2,0,0.3-0.1h0.1v0.6
		C22.8,33.4,22.7,33.5,22.5,33.5z M25.6,33.5c-1.3,0-2.1-0.8-2.1-2c0-1.2,0.8-2.1,1.9-2.1c1.2,0,1.7,0.8,1.7,1.9v0.4h-2.9
		c0.1,0.8,0.6,1.1,1.4,1.1c0.5,0,0.8-0.1,1.1-0.3h0.1v0.6C26.5,33.4,26.1,33.5,25.6,33.5z M24.3,31.1h2.2c0-0.7-0.4-1.1-1-1.1
		C24.8,30,24.4,30.5,24.3,31.1z M30.3,30.2c-0.1-0.1-0.3-0.1-0.4-0.1c-0.5,0-0.8,0.3-1,0.9v2.4h-0.7v-3.9h0.7v0.8
		c0.2-0.6,0.6-0.9,1.1-0.9c0.2,0,0.3,0,0.4,0.1L30.3,30.2L30.3,30.2z M31.8,32.7v2.1h-0.7v-5.3h0.7v0.7c0.2-0.4,0.7-0.8,1.3-0.8
		c1.2,0,1.8,0.9,1.8,2c0,1.1-0.6,2-1.8,2C32.5,33.4,32,33.1,31.8,32.7z M34.1,31.4c0-0.8-0.4-1.3-1.2-1.3c-0.5,0-0.8,0.2-1.1,0.7
		v1.3c0.2,0.4,0.6,0.7,1.1,0.7C33.7,32.7,34.1,32.2,34.1,31.4z M38,30.2c-0.1-0.1-0.3-0.1-0.4-0.1c-0.5,0-0.8,0.3-1,0.9v2.4h-0.7
		v-3.9h0.7v0.8c0.2-0.6,0.6-0.9,1.1-0.9c0.2,0,0.3,0,0.4,0.1L38,30.2L38,30.2z M39.3,29.1c-0.3,0-0.5-0.2-0.5-0.5
		c0-0.3,0.2-0.5,0.5-0.5c0.3,0,0.5,0.2,0.5,0.5C39.8,28.8,39.6,29.1,39.3,29.1z M39.6,33.4h-0.7v-3.9h0.7V33.4z M40.8,32.4
		L40.8,32.4c0.4,0.3,0.9,0.4,1.3,0.4c0.4,0,0.8-0.2,0.8-0.5c0-0.3-0.3-0.4-0.9-0.6c-0.6-0.2-1.2-0.4-1.2-1.1c0-0.8,0.6-1.2,1.4-1.2
		c0.5,0,0.9,0.1,1.2,0.3v0.7h-0.1c-0.3-0.2-0.7-0.4-1.1-0.4c-0.5,0-0.7,0.2-0.7,0.5c0,0.3,0.3,0.4,0.9,0.6c0.6,0.2,1.2,0.4,1.2,1.1
		c0,0.8-0.7,1.2-1.5,1.2c-0.5,0-1-0.1-1.3-0.4V32.4z M46.6,33.5c-1.3,0-2.1-0.8-2.1-2c0-1.2,0.8-2.1,1.9-2.1c1.2,0,1.7,0.8,1.7,1.9
		v0.4h-2.9c0.1,0.8,0.6,1.1,1.4,1.1c0.5,0,0.8-0.1,1.1-0.3h0.1v0.6C47.5,33.4,47,33.5,46.6,33.5z M45.2,31.1h2.2
		c0-0.7-0.4-1.1-1-1.1C45.7,30,45.3,30.5,45.2,31.1z M16.1,20.5v5.3h-1.2v-2.2h-2.1v2.2h-1.2v-5.3h1.2v2.1h2.1v-2.1H16.1z
		 M19.2,25.9c-1.5,0-2.2-0.8-2.2-2.1c0-1.3,0.8-2.1,2-2.1c1.3,0,1.9,0.8,1.9,2v0.4h-2.7c0.1,0.7,0.6,0.8,1.1,0.8
		c0.5,0,0.8-0.1,1.2-0.3h0.1v0.8C20.2,25.8,19.7,25.9,19.2,25.9z M18.1,23.4h1.6c0-0.6-0.3-0.9-0.8-0.9
		C18.6,22.6,18.2,22.7,18.1,23.4z M22.2,25.8l-0.8-3.9v-0.1h1.1l0.4,2.4L23,25l0.2-0.8l0.5-2.4h1.2l0.5,2.4l0.2,0.8l0.1-0.8l0.4-2.4
		h1v0.1l-0.8,3.9h-1.5l-0.5-2.1l-0.1-0.8l-0.1,0.8l-0.5,2.1H22.2z M29.3,25.9c-0.8,0-1.3-0.4-1.3-1.3v-4.1h1.2v4
		c0,0.3,0.1,0.4,0.4,0.4c0.1,0,0.2,0,0.3,0h0v1C29.7,25.8,29.5,25.9,29.3,25.9z M32.4,25.9c-1.5,0-2.2-0.8-2.2-2.1
		c0-1.3,0.8-2.1,2-2.1c1.3,0,1.9,0.8,1.9,2v0.4h-2.7c0.1,0.7,0.6,0.8,1.1,0.8c0.5,0,0.8-0.1,1.2-0.3h0.1v0.8
		C33.5,25.8,32.9,25.9,32.4,25.9z M31.4,23.4H33c0-0.6-0.3-0.9-0.8-0.9C31.8,22.6,31.4,22.7,31.4,23.4z M38,24.3v-1.6h-1.7v1.5
		c0,0.4,0.1,0.6,0.5,0.6c0.1,0,0.3,0,0.3-0.1h0.1v1c-0.2,0.1-0.4,0.1-0.7,0.1c-1,0-1.4-0.5-1.4-1.5v-1.6h-0.7v-1h0.7v-1h1.2v1H38v-1
		h1.2v1h1v1h-1v1.5c0,0.4,0.1,0.6,0.5,0.6c0.1,0,0.3,0,0.3-0.1h0.1v1c-0.2,0.1-0.4,0.1-0.7,0.1C38.4,25.9,38,25.4,38,24.3z
		 M43.5,24.2v1.6h-1.1v-5.3h2.1c1.2,0,1.9,0.6,1.9,1.8c0,1.2-0.8,1.8-1.9,1.8H43.5z M44.4,21.5h-0.8v1.7h0.8c0.6,0,0.9-0.3,0.9-0.8
		C45.2,21.8,44.9,21.5,44.4,21.5z M49.3,25.2c-0.2,0.4-0.7,0.6-1.2,0.6c-0.7,0-1.4-0.4-1.4-1.2c0-0.8,0.5-1.2,1.5-1.2
		c0.3,0,0.7,0,1,0.1v-0.2c0-0.4-0.3-0.6-0.9-0.6c-0.4,0-0.8,0.1-1.1,0.2h-0.1V22c0.3-0.2,0.8-0.3,1.4-0.3c1.3,0,1.9,0.6,1.9,1.6v2.5
		h-1.1V25.2z M49.3,24.5V24C49.1,24,48.9,24,48.6,24c-0.5,0-0.7,0.2-0.7,0.5c0,0.4,0.2,0.5,0.6,0.5C48.9,25,49.2,24.8,49.3,24.5z
		 M51.3,23.8c0-1.3,0.9-2.1,2.1-2.1c0.5,0,0.9,0.1,1.1,0.3v1h-0.1c-0.2-0.2-0.5-0.3-0.9-0.3c-0.6,0-1,0.4-1,1.1c0,0.7,0.5,1.1,1,1.1
		c0.3,0,0.6-0.1,0.9-0.3h0.1v1c-0.3,0.2-0.6,0.3-1.1,0.3C52.2,25.9,51.3,25.1,51.3,23.8z M56.5,23.9v1.9h-1.2v-5.3h1.2v3l0.3-0.4
		l1.1-1.3h1.2v0.1l-1.5,1.7l1.5,2v0.1h-1.3l-1-1.5L56.5,23.9z M61.9,25.2c-0.2,0.4-0.7,0.6-1.2,0.6c-0.7,0-1.4-0.4-1.4-1.2
		c0-0.8,0.5-1.2,1.5-1.2c0.3,0,0.7,0,1,0.1v-0.2c0-0.4-0.3-0.6-0.9-0.6c-0.4,0-0.8,0.1-1.1,0.2h-0.1V22c0.3-0.2,0.8-0.3,1.4-0.3
		c1.2,0,1.9,0.6,1.9,1.6v2.5h-1.1V25.2z M61.9,24.5V24C61.7,24,61.4,24,61.2,24c-0.5,0-0.7,0.2-0.7,0.5c0,0.4,0.2,0.5,0.6,0.5
		C61.5,25,61.8,24.8,61.9,24.5z M65.2,22.6c0.2-0.6,0.7-0.9,1.1-0.9c0.2,0,0.3,0,0.3,0.1v1.1h-0.1c-0.1-0.1-0.2-0.1-0.4-0.1
		c-0.5,0-0.8,0.2-0.9,0.7v2.3h-1.2v-4h1.1V22.6z M70,25.2c-0.3,0.4-0.7,0.7-1.2,0.7c-1.1,0-1.8-0.9-1.8-2.1c0-1.2,0.7-2.1,1.8-2.1
		c0.5,0,0.9,0.2,1.1,0.6v-1.8h1.2v5.3H70V25.2z M69.9,24.5v-1.4c-0.2-0.3-0.5-0.5-0.8-0.5c-0.5,0-0.9,0.4-0.9,1.2
		c0,0.7,0.4,1.1,0.9,1.1C69.4,24.9,69.7,24.8,69.9,24.5z"/>
</g>
<g id="guides">
	<g>
		<path class="st2" d="M15.3,42.6l3.4,8.5H18l-1.1-2.8h-3.8L12,51.2h-0.7l3.4-8.5H15.3z M13.3,47.7h3.3L15,43.6L13.3,47.7z"/>
		<path class="st2" d="M24.5,51.2h-0.7v-1c-0.4,0.6-1.1,1.1-2,1.1c-1.4,0-2.1-0.9-2.1-2.2V45h0.7v4c0,1,0.5,1.7,1.6,1.7
			c0.8,0,1.5-0.6,1.8-1.3V45h0.7V51.2z"/>
		<path class="st2" d="M27.7,51.2H27v-5.6h-1.3V45H27v-1.6h0.7V45h1.5v0.6h-1.5V51.2z"/>
		<path class="st2" d="M30.3,42.1H31V46c0.4-0.6,1.1-1.1,2-1.1c1.4,0,2.1,0.9,2.1,2.2v4.1h-0.7v-4c0-1-0.5-1.7-1.6-1.7
			c-0.8,0-1.5,0.6-1.9,1.3v4.3h-0.7V42.1z"/>
		<path class="st2" d="M39.2,51.3c-1.6,0-2.7-1.3-2.7-3.2s1.1-3.2,2.7-3.2c1.6,0,2.7,1.3,2.7,3.2S40.9,51.3,39.2,51.3z M39.2,45.5
			c-1.2,0-2,1-2,2.6c0,1.6,0.8,2.6,2,2.6c1.2,0,2-1,2-2.6C41.3,46.5,40.5,45.5,39.2,45.5z"/>
		<path class="st2" d="M46.3,45.6c-0.2-0.1-0.3-0.1-0.6-0.1c-0.8,0-1.3,0.5-1.6,1.3v4.3h-0.7V45h0.7v1c0.3-0.6,0.9-1.1,1.7-1.1
			c0.2,0,0.4,0,0.5,0.1V45.6z"/>
		<path class="st2" d="M47.8,43.6c-0.3,0-0.5-0.2-0.5-0.5c0-0.3,0.2-0.5,0.5-0.5c0.3,0,0.5,0.2,0.5,0.5
			C48.3,43.4,48.1,43.6,47.8,43.6z M48.2,51.2h-0.7V45h0.7V51.2z"/>
		<path class="st2" d="M54.3,51.2h-4.8v-0.1l3.7-5.5h-3.5V45h4.6v0.1l-3.7,5.5h3.7V51.2z"/>
		<path class="st2" d="M58.2,50.7c0.7,0,1.2-0.2,1.7-0.6v0.7c-0.5,0.4-1.1,0.5-1.8,0.5c-1.7,0-2.9-1.2-2.9-3.2c0-1.9,1-3.3,2.7-3.3
			c1.6,0,2.4,1.2,2.4,3v0.3h-4.4C55.9,49.8,56.9,50.7,58.2,50.7z M56,47.6h3.7c0-1.1-0.6-2.1-1.8-2.1C56.9,45.5,56.1,46.2,56,47.6z"
			/>
		<path class="st2" d="M65.9,50.3c-0.3,0.5-1.1,1-1.9,1c-1.8,0-2.7-1.5-2.7-3.2c0-1.7,0.9-3.2,2.7-3.2c0.8,0,1.6,0.5,1.9,1v-3.8h0.7
			v9h-0.7V50.3z M65.9,46.7c-0.4-0.8-1.1-1.2-1.9-1.2c-1.3,0-2.1,1.1-2.1,2.6c0,1.5,0.8,2.6,2.1,2.6c0.8,0,1.4-0.4,1.9-1.2V46.7z"/>
		<path class="st2" d="M12.8,59v3.8h-0.7v-8.5H15c1.7,0,2.8,0.8,2.8,2.4c0,1.4-0.8,2.2-2.2,2.4l2.6,3.8h-0.8L14.8,59H12.8z
			 M12.8,58.4H15c1.3,0,2.1-0.7,2.1-1.8c0-1.1-0.8-1.8-2.1-1.8h-2.2V58.4z"/>
		<path class="st2" d="M21.9,62.3c0.7,0,1.2-0.2,1.7-0.6v0.7c-0.5,0.4-1.1,0.5-1.8,0.5c-1.7,0-2.9-1.2-2.9-3.2c0-1.9,1-3.3,2.7-3.3
			c1.6,0,2.4,1.2,2.4,3v0.3h-4.4C19.7,61.4,20.6,62.3,21.9,62.3z M19.7,59.2h3.7c0-1.1-0.6-2.1-1.8-2.1
			C20.6,57.1,19.8,57.8,19.7,59.2z"/>
		<path class="st2" d="M25.5,56.6h0.7v1c0.4-0.6,1.1-1.1,2-1.1c1.4,0,2.1,0.9,2.1,2.2v4.1h-0.7v-4c0-1-0.5-1.7-1.6-1.7
			c-0.8,0-1.5,0.6-1.9,1.3v4.3h-0.7V56.6z"/>
		<path class="st2" d="M34.6,62.3c0.7,0,1.2-0.2,1.7-0.6v0.7c-0.5,0.4-1.1,0.5-1.8,0.5c-1.7,0-2.9-1.2-2.9-3.2c0-1.9,1-3.3,2.7-3.3
			c1.6,0,2.4,1.2,2.4,3v0.3h-4.4C32.4,61.4,33.3,62.3,34.6,62.3z M32.4,59.2h3.7c0-1.1-0.6-2.1-1.8-2.1
			C33.3,57.1,32.5,57.8,32.4,59.2z"/>
		<path class="st2" d="M43.2,61.7l1.5-5.1h0.7l-1.9,6.2h-0.6l-1.5-5.1l-1.5,5.1h-0.6l-1.9-6.2h0.7l1.5,5.1l1.5-5.1h0.6L43.2,61.7z"
			/>
		<path class="st2" d="M12.1,65.8h2.6c2.5,0,4.1,1.7,4.1,4.3c0,2.6-1.7,4.3-4.1,4.3h-2.6V65.8z M14.7,73.7c2.1,0,3.4-1.4,3.4-3.6
			c0-2.2-1.3-3.6-3.4-3.6h-1.9v7.2H14.7z"/>
		<path class="st2" d="M20.6,66.8c-0.3,0-0.5-0.2-0.5-0.5c0-0.3,0.2-0.5,0.5-0.5c0.3,0,0.5,0.2,0.5,0.5C21,66.6,20.8,66.8,20.6,66.8
			z M20.9,74.4h-0.7v-6.2h0.7V74.4z"/>
		<path class="st2" d="M22.4,73.1c0.5,0.5,1.2,0.8,2,0.8c0.8,0,1.5-0.3,1.5-1.1c0-0.5-0.3-0.8-1-1.1l-1-0.4
			c-0.8-0.3-1.4-0.7-1.4-1.6c0-1,0.9-1.6,2-1.6c0.7,0,1.3,0.2,1.8,0.6v0.8c-0.5-0.4-1-0.7-1.8-0.7c-0.7,0-1.4,0.3-1.4,1
			c0,0.6,0.4,0.8,1.1,1.1l1.1,0.4c0.8,0.3,1.3,0.8,1.3,1.6c0,1.1-1,1.7-2.2,1.7c-0.8,0-1.6-0.3-2-0.6V73.1z"/>
		<path class="st2" d="M29.3,74.4h-0.7v-5.6h-1.3v-0.6h1.3v-1.6h0.7v1.6h1.5v0.6h-1.5V74.4z"/>
		<path class="st2" d="M34.9,68.8c-0.2-0.1-0.3-0.1-0.6-0.1c-0.8,0-1.3,0.5-1.6,1.3v4.3h-0.7v-6.2h0.7v1c0.3-0.6,0.9-1.1,1.7-1.1
			c0.2,0,0.4,0,0.5,0.1V68.8z"/>
		<path class="st2" d="M36.4,66.8c-0.3,0-0.5-0.2-0.5-0.5c0-0.3,0.2-0.5,0.5-0.5c0.3,0,0.5,0.2,0.5,0.5
			C36.9,66.6,36.6,66.8,36.4,66.8z M36.7,74.4H36v-6.2h0.7V74.4z"/>
		<path class="st2" d="M39.3,74.4h-0.7v-9h0.7v3.8c0.3-0.5,1.1-1,1.9-1c1.8,0,2.7,1.5,2.7,3.2s-0.9,3.2-2.7,3.2
			c-0.8,0-1.6-0.5-1.9-1V74.4z M39.3,72.6c0.4,0.8,1.1,1.2,1.9,1.2c1.3,0,2.1-1.1,2.1-2.6c0-1.5-0.8-2.6-2.1-2.6
			c-0.8,0-1.4,0.4-1.9,1.2V72.6z"/>
		<path class="st2" d="M50.1,74.4h-0.7v-1c-0.4,0.6-1.1,1.1-2,1.1c-1.4,0-2.1-0.9-2.1-2.2v-4.1H46v4c0,1,0.5,1.7,1.6,1.7
			c0.8,0,1.5-0.6,1.8-1.3v-4.3h0.7V74.4z"/>
		<path class="st2" d="M53.3,74.4h-0.7v-5.6h-1.3v-0.6h1.3v-1.6h0.7v1.6h1.5v0.6h-1.5V74.4z"/>
		<path class="st2" d="M58.1,74.5c-1.6,0-2.7-1.3-2.7-3.2c0-1.9,1.1-3.2,2.7-3.2c1.6,0,2.7,1.3,2.7,3.2
			C60.9,73.2,59.8,74.5,58.1,74.5z M58.1,68.7c-1.2,0-2,1-2,2.6s0.8,2.6,2,2.6c1.2,0,2-1,2-2.6S59.3,68.7,58.1,68.7z"/>
		<path class="st2" d="M65.2,68.8c-0.2-0.1-0.3-0.1-0.6-0.1c-0.8,0-1.4,0.5-1.6,1.3v4.3h-0.7v-6.2H63v1c0.3-0.6,0.9-1.1,1.7-1.1
			c0.2,0,0.4,0,0.5,0.1V68.8z"/>
	</g>
</g>
</svg>
