<?xml version="1.0" encoding="utf-8"?>
<!-- Generator: Adobe Illustrator 22.0.1, SVG Export Plug-In . SVG Version: 6.00 Build 0)  -->
<svg version="1.1" xmlns="http://www.w3.org/2000/svg" xmlns:xlink="http://www.w3.org/1999/xlink" x="0px" y="0px"
	 viewBox="0 0 70.3 85" style="enable-background:new 0 0 70.3 85;" xml:space="preserve">
<style type="text/css">
	.st0{fill:#425563;}
	.st1{fill:#00B388;}
	.st2{fill:#FFFFFF;}
	.st3{fill:#C6C9CA;}
</style>
<g id="Layer_1">
	<g>
		<g>
			<path class="st0" d="M70.3,70.3H0V0h70.3V70.3z"/>
			<g>
				<path id="element_2_" class="st1" d="M9.6,9.7v4.4l0,0h15.3V9.7H9.6z M23.9,13.1H10.5v-2.5h13.4V13.1z"/>
				<path class="st2" d="M12.4,23.2v0.5h-2.2v1.3h2v0.5h-2v1.5h2.2v0.5H9.6v-4.4H12.4z M13.9,27.6h-0.6v-3.2h0.6V25
					c0.2-0.4,0.6-0.7,1.1-0.7c0.8,0,1.2,0.5,1.2,1.2v2.1h-0.6v-2.1c0-0.4-0.2-0.7-0.7-0.7c-0.4,0-0.8,0.3-0.9,0.7V27.6z M18.6,27.7
					c-0.8,0-1.1-0.4-1.1-1v-1.8h-0.7v-0.5h0.7v-0.8H18v0.8H19v0.5H18v1.7c0,0.4,0.2,0.5,0.6,0.5c0.1,0,0.2,0,0.3,0h0v0.5
					C18.9,27.6,18.7,27.7,18.6,27.7z M21.2,27.7c-1.1,0-1.8-0.6-1.8-1.7c0-1,0.6-1.7,1.6-1.7c1,0,1.4,0.6,1.4,1.6v0.3h-2.4
					c0.1,0.6,0.5,0.9,1.1,0.9c0.4,0,0.7-0.1,0.9-0.3h0.1v0.5C21.9,27.6,21.6,27.7,21.2,27.7z M20.1,25.7h1.8c0-0.6-0.3-0.9-0.9-0.9
					C20.5,24.8,20.1,25.2,20.1,25.7z M25.1,25c-0.1,0-0.2-0.1-0.3-0.1c-0.4,0-0.7,0.3-0.8,0.7v2h-0.6v-3.2h0.6v0.7
					c0.2-0.5,0.5-0.7,0.9-0.7c0.1,0,0.3,0,0.3,0L25.1,25L25.1,25z M26.3,27.1v1.7h-0.6v-4.4h0.6v0.6c0.2-0.3,0.6-0.6,1.1-0.6
					c1,0,1.5,0.8,1.5,1.7c0,0.9-0.5,1.7-1.5,1.7C26.9,27.6,26.5,27.4,26.3,27.1z M28.2,25.9c0-0.7-0.4-1.1-1-1.1
					c-0.4,0-0.7,0.2-0.9,0.6v1.1c0.2,0.3,0.5,0.6,0.9,0.6C27.8,27.1,28.2,26.6,28.2,25.9z M31.5,25c-0.1,0-0.2-0.1-0.3-0.1
					c-0.4,0-0.7,0.3-0.8,0.7v2h-0.6v-3.2h0.6v0.7c0.2-0.5,0.5-0.7,0.9-0.7c0.1,0,0.3,0,0.3,0L31.5,25L31.5,25z M32.5,24
					c-0.2,0-0.4-0.2-0.4-0.4c0-0.2,0.2-0.4,0.4-0.4c0.2,0,0.4,0.2,0.4,0.4C32.9,23.9,32.7,24,32.5,24z M32.8,27.6h-0.6v-3.2h0.6
					V27.6z M33.7,26.8L33.7,26.8c0.3,0.2,0.7,0.3,1.1,0.3c0.4,0,0.7-0.1,0.7-0.4c0-0.3-0.3-0.4-0.8-0.5c-0.5-0.2-1-0.3-1-0.9
					c0-0.6,0.5-1,1.2-1c0.4,0,0.7,0.1,1,0.3v0.5h-0.1c-0.3-0.2-0.6-0.3-0.9-0.3c-0.4,0-0.6,0.2-0.6,0.4c0,0.3,0.2,0.3,0.8,0.5
					c0.5,0.2,1,0.3,1,0.9c0,0.7-0.5,1-1.3,1c-0.4,0-0.9-0.1-1.1-0.3V26.8z M38.5,27.7c-1.1,0-1.8-0.6-1.8-1.7c0-1,0.6-1.7,1.6-1.7
					c1,0,1.4,0.6,1.4,1.6v0.3h-2.4c0.1,0.6,0.5,0.9,1.1,0.9c0.4,0,0.7-0.1,0.9-0.3h0.1v0.5C39.3,27.6,38.9,27.7,38.5,27.7z
					 M37.4,25.7h1.8c0-0.6-0.3-0.9-0.9-0.9C37.8,24.8,37.5,25.2,37.4,25.7z M13.3,16.9v4.4h-1v-1.8h-1.8v1.8h-1v-4.4h1v1.7h1.8v-1.7
					H13.3z M15.9,21.4c-1.2,0-1.9-0.7-1.9-1.7c0-1.1,0.7-1.7,1.7-1.7c1.1,0,1.6,0.7,1.6,1.7V20H15c0.1,0.5,0.5,0.7,0.9,0.7
					c0.4,0,0.7,0,1-0.2H17v0.7C16.7,21.3,16.3,21.4,15.9,21.4z M15,19.4h1.3c0-0.5-0.2-0.7-0.6-0.7C15.3,18.7,15.1,18.8,15,19.4z
					 M18.4,21.3l-0.7-3.2V18h0.9l0.4,2l0.1,0.6l0.1-0.6l0.4-2h1l0.4,2l0.1,0.6l0.1-0.6l0.4-2h0.8v0.1l-0.7,3.2h-1.2l-0.4-1.8
					l-0.1-0.7L20,19.6l-0.4,1.8H18.4z M24.2,21.4c-0.7,0-1.1-0.3-1.1-1.1v-3.4h1v3.3c0,0.2,0.1,0.3,0.3,0.3c0.1,0,0.2,0,0.3,0h0v0.8
					C24.6,21.4,24.4,21.4,24.2,21.4z M26.8,21.4c-1.2,0-1.9-0.7-1.9-1.7c0-1.1,0.7-1.7,1.7-1.7c1.1,0,1.6,0.7,1.6,1.7V20H26
					c0.1,0.5,0.5,0.7,0.9,0.7c0.4,0,0.7,0,1-0.2H28v0.7C27.7,21.3,27.2,21.4,26.8,21.4z M25.9,19.4h1.3c0-0.5-0.2-0.7-0.6-0.7
					C26.3,18.7,26,18.8,25.9,19.4z M31.4,20.1v-1.3H30v1.3c0,0.3,0.1,0.5,0.4,0.5c0.1,0,0.2,0,0.3-0.1h0.1v0.8
					c-0.1,0-0.3,0.1-0.6,0.1c-0.8,0-1.2-0.4-1.2-1.3v-1.3h-0.6V18h0.6v-0.8h1V18h1.4v-0.8h1V18h0.8v0.8h-0.8v1.3
					c0,0.3,0.1,0.5,0.4,0.5c0.1,0,0.2,0,0.3-0.1h0.1v0.8c-0.1,0-0.3,0.1-0.6,0.1C31.8,21.4,31.4,21,31.4,20.1z M36,20v1.4h-0.9v-4.4
					h1.7c1,0,1.6,0.5,1.6,1.5c0,1-0.6,1.5-1.6,1.5H36z M36.7,17.7H36v1.4h0.7c0.5,0,0.7-0.3,0.7-0.7C37.4,18,37.2,17.7,36.7,17.7z
					 M40.8,20.8c-0.2,0.4-0.6,0.5-1,0.5c-0.6,0-1.1-0.4-1.1-1c0-0.7,0.4-1,1.3-1c0.3,0,0.5,0,0.8,0.1v-0.2c0-0.4-0.2-0.5-0.7-0.5
					c-0.4,0-0.7,0.1-0.9,0.2H39v-0.7c0.3-0.1,0.7-0.2,1.1-0.2c1,0,1.6,0.5,1.6,1.3v2.1h-0.9V20.8z M40.8,20.3v-0.4
					c-0.2,0-0.4-0.1-0.5-0.1c-0.4,0-0.6,0.1-0.6,0.4c0,0.3,0.2,0.4,0.5,0.4C40.4,20.7,40.7,20.5,40.8,20.3z M42.4,19.7
					c0-1.1,0.8-1.7,1.7-1.7c0.4,0,0.7,0.1,0.9,0.2V19H45c-0.2-0.2-0.4-0.2-0.7-0.2c-0.5,0-0.8,0.3-0.8,0.9c0,0.6,0.4,0.9,0.8,0.9
					c0.3,0,0.5-0.1,0.7-0.2h0.1v0.8c-0.2,0.1-0.5,0.2-0.9,0.2C43.2,21.4,42.4,20.7,42.4,19.7z M46.8,19.7v1.6h-1v-4.4h1v2.5l0.2-0.3
					l0.9-1.1h1v0.1l-1.2,1.4l1.2,1.7v0.1h-1.1L47,20.1L46.8,19.7z M51.2,20.8c-0.2,0.4-0.6,0.5-1,0.5c-0.6,0-1.1-0.4-1.1-1
					c0-0.7,0.4-1,1.3-1c0.3,0,0.5,0,0.8,0.1v-0.2c0-0.4-0.2-0.5-0.7-0.5c-0.4,0-0.7,0.1-0.9,0.2h-0.1v-0.7c0.3-0.1,0.7-0.2,1.1-0.2
					c1,0,1.6,0.5,1.6,1.3v2.1h-0.9V20.8z M51.2,20.3v-0.4c-0.2,0-0.4-0.1-0.5-0.1c-0.4,0-0.6,0.1-0.6,0.4c0,0.3,0.2,0.4,0.5,0.4
					C50.8,20.7,51.1,20.5,51.2,20.3z M53.9,18.7c0.2-0.5,0.5-0.7,0.9-0.7c0.1,0,0.2,0,0.3,0.1V19H55c-0.1,0-0.2-0.1-0.3-0.1
					c-0.4,0-0.7,0.2-0.7,0.5v1.9h-1V18h0.9V18.7z M57.9,20.9c-0.2,0.3-0.6,0.5-1,0.5c-0.9,0-1.5-0.7-1.5-1.7c0-1,0.6-1.7,1.5-1.7
					c0.4,0,0.7,0.2,0.9,0.5v-1.5h1v4.4h-0.9V20.9z M57.8,20.3v-1.2c-0.2-0.3-0.4-0.4-0.7-0.4c-0.4,0-0.7,0.3-0.7,1
					c0,0.6,0.3,0.9,0.7,0.9C57.4,20.6,57.7,20.5,57.8,20.3z"/>
			</g>
		</g>
		<path class="st2" d="M15.7,44.2c0,1.6-1.1,2.6-3,2.6H9.6v-9.3h2.8c1.9,0,3,0.9,3,2.4c0,1.2-0.7,1.8-1.5,2.1
			C15,42.2,15.7,43.1,15.7,44.2z M12.4,41.7c1.4,0,2.2-0.6,2.2-1.7c0-1.2-0.8-1.7-2.2-1.7h-2.1v3.5H12.4z M10.3,46.1h2.4
			c1.5,0,2.2-0.7,2.2-1.9c0-1.1-0.8-1.9-2.2-1.9h-2.4V46.1z M22.5,46.8h-0.7v-1.1c-0.4,0.6-1.2,1.2-2.1,1.2c-1.5,0-2.3-1-2.3-2.4
			v-4.4H18v4.3c0,1,0.5,1.8,1.7,1.8c0.9,0,1.7-0.7,2-1.5v-4.7h0.7V46.8z M24.2,45.5c0.6,0.5,1.3,0.8,2.1,0.8c0.8,0,1.6-0.3,1.6-1.2
			c0-0.6-0.4-0.9-1.1-1.2l-1.1-0.4c-0.9-0.3-1.6-0.8-1.6-1.8c0-1.1,1-1.8,2.2-1.8c0.7,0,1.4,0.2,2,0.6v0.8c-0.6-0.4-1.1-0.8-2-0.8
			c-0.8,0-1.5,0.4-1.5,1.1c0,0.6,0.4,0.9,1.2,1.2l1.2,0.4c0.9,0.3,1.4,0.9,1.4,1.8c0,1.2-1.1,1.9-2.4,1.9c-0.9,0-1.7-0.3-2.1-0.7
			V45.5z M30.8,38.6c-0.3,0-0.5-0.2-0.5-0.5c0-0.3,0.2-0.5,0.5-0.5c0.3,0,0.5,0.2,0.5,0.5C31.3,38.3,31.1,38.6,30.8,38.6z
			 M31.2,46.8h-0.8v-6.7h0.8V46.8z M33.3,40.1h0.8v1.1c0.4-0.6,1.2-1.2,2.1-1.2c1.5,0,2.3,1,2.3,2.4v4.4h-0.7v-4.3
			c0-1-0.5-1.8-1.7-1.8c-0.9,0-1.7,0.7-2,1.5v4.7h-0.8V40.1z M43.3,46.3c0.8,0,1.3-0.2,1.9-0.7v0.7c-0.5,0.4-1.2,0.6-2,0.6
			c-1.9,0-3.1-1.3-3.1-3.4c0-2.1,1.1-3.6,2.9-3.6c1.8,0,2.7,1.3,2.7,3.3v0.3h-4.8C40.9,45.3,42,46.3,43.3,46.3z M40.9,42.9H45
			c0-1.2-0.6-2.3-1.9-2.3C42,40.6,41.1,41.4,40.9,42.9z M47,45.5c0.6,0.5,1.3,0.8,2.1,0.8c0.8,0,1.6-0.3,1.6-1.2
			c0-0.6-0.4-0.9-1.1-1.2l-1.1-0.4c-0.9-0.3-1.6-0.8-1.6-1.8c0-1.1,1-1.8,2.2-1.8c0.7,0,1.4,0.2,2,0.6v0.8c-0.6-0.4-1.1-0.8-2-0.8
			c-0.8,0-1.5,0.4-1.5,1.1c0,0.6,0.4,0.9,1.2,1.2l1.2,0.4c0.9,0.3,1.4,0.9,1.4,1.8c0,1.2-1.1,1.9-2.4,1.9c-0.9,0-1.7-0.3-2.1-0.7
			V45.5z M52.7,45.5c0.6,0.5,1.3,0.8,2.1,0.8c0.8,0,1.6-0.3,1.6-1.2c0-0.6-0.4-0.9-1.1-1.2l-1.1-0.4c-0.9-0.3-1.6-0.8-1.6-1.8
			c0-1.1,1-1.8,2.2-1.8c0.7,0,1.4,0.2,2,0.6v0.8c-0.6-0.4-1.1-0.8-2-0.8c-0.8,0-1.5,0.4-1.5,1.1c0,0.6,0.4,0.9,1.1,1.2l1.2,0.4
			c0.9,0.3,1.4,0.9,1.4,1.8c0,1.2-1.1,1.9-2.4,1.9c-0.9,0-1.7-0.3-2.1-0.7V45.5z M10.4,57v4H9.6v-9.3h3.3c1.8,0,3,0.9,3,2.6
			c0,1.7-1.2,2.6-3,2.6H10.4z M12.8,52.4h-2.5v3.9h2.5c1.4,0,2.3-0.7,2.3-1.9C15.1,53.1,14.3,52.4,12.8,52.4z M21,56.3
			c0-0.9-0.6-1.5-1.7-1.5c-0.8,0-1.4,0.2-2,0.6v-0.7c0.5-0.3,1.2-0.6,2-0.6c1.4,0,2.3,0.8,2.3,2.1V61H21v-0.6
			c-0.3,0.3-1,0.7-1.9,0.7c-1.4,0-2.5-0.8-2.5-2.1c0-1.2,1.1-2.1,2.5-2.1c0.8,0,1.5,0.4,1.8,0.7V56.3z M21,58.6c-0.2-0.6-1-1-1.8-1
			c-1,0-1.8,0.5-1.8,1.4c0,1,0.9,1.4,1.8,1.4c0.8,0,1.6-0.4,1.8-1V58.6z M27,54.9c-0.2-0.1-0.4-0.1-0.6-0.1c-0.8,0-1.5,0.6-1.8,1.5
			V61h-0.8v-6.7h0.8v1.1c0.3-0.7,1-1.2,1.8-1.2c0.3,0,0.4,0,0.6,0.1V54.9z M30.2,61h-0.8v-6.1H28v-0.7h1.4v-1.7h0.8v1.7h1.6v0.7
			h-1.6V61z M33.2,54.2h0.8v1.1c0.4-0.6,1.2-1.2,2.1-1.2c1.5,0,2.3,1,2.3,2.4V61h-0.7v-4.3c0-1-0.5-1.8-1.7-1.8
			c-0.9,0-1.7,0.7-2,1.5V61h-0.8V54.2z M43.2,60.4c0.8,0,1.3-0.2,1.9-0.7v0.7c-0.5,0.4-1.2,0.6-2,0.6c-1.9,0-3.1-1.3-3.1-3.4
			c0-2.1,1.1-3.6,2.9-3.6c1.8,0,2.7,1.3,2.7,3.3v0.3h-4.8C40.7,59.5,41.8,60.4,43.2,60.4z M40.8,57h4.1c0-1.2-0.6-2.3-1.9-2.3
			C41.8,54.8,40.9,55.6,40.8,57z M50.4,54.9c-0.2-0.1-0.4-0.1-0.6-0.1c-0.8,0-1.5,0.6-1.8,1.5V61h-0.8v-6.7h0.8v1.1
			c0.3-0.7,1-1.2,1.8-1.2c0.3,0,0.4,0,0.6,0.1V54.9z"/>
	</g>
</g>
<g id="guides">
	<g>
		<g>
			<rect y="70.3" class="st3" width="70.3" height="14.7"/>
		</g>
	</g>
	<g>
		<path d="M6,78.3v1.5H5.1v-4.1h1.7c0.9,0,1.4,0.5,1.4,1.3c0,0.7-0.4,1.1-0.9,1.2l1.1,1.6h-1l-1-1.5H6z M6,77.5h0.8
			c0.4,0,0.7-0.2,0.7-0.6c0-0.3-0.2-0.6-0.7-0.6H6V77.5z"/>
		<path d="M9.5,78.5c0.1,0.5,0.4,0.7,0.9,0.7c0.3,0,0.6-0.1,0.9-0.3v0.7c-0.2,0.2-0.6,0.3-1,0.3c-0.9,0-1.5-0.6-1.5-1.5
			c0-0.9,0.6-1.6,1.4-1.6c0.9,0,1.3,0.6,1.3,1.5v0.3H9.5z M9.5,77.9h1.1c0-0.3-0.2-0.5-0.5-0.5C9.9,77.4,9.6,77.6,9.5,77.9z"/>
		<path d="M12.9,80.9H12v-4.1h0.8V77c0.1-0.2,0.4-0.3,0.8-0.3c0.9,0,1.4,0.7,1.4,1.6c0,0.8-0.5,1.6-1.4,1.6c-0.3,0-0.6-0.2-0.8-0.3
			V80.9z M12.9,78.8c0.1,0.2,0.3,0.3,0.6,0.3c0.4,0,0.7-0.4,0.7-0.8c0-0.5-0.3-0.8-0.7-0.8c-0.2,0-0.5,0.1-0.6,0.3V78.8z"/>
		<path d="M16.4,79.8h-0.8v-4.4h0.8V79.8z"/>
		<path d="M18.9,77.9c0-0.3-0.2-0.5-0.7-0.5c-0.3,0-0.6,0.1-0.8,0.2V77c0.2-0.1,0.6-0.2,1-0.2c0.8,0,1.3,0.4,1.3,1.2v1.9h-0.8v-0.2
			c-0.1,0.1-0.4,0.2-0.7,0.2c-0.6,0-1.1-0.3-1.1-1c0-0.6,0.5-1,1.2-1c0.3,0,0.6,0.1,0.7,0.2V77.9z M18.9,78.8
			c-0.1-0.2-0.3-0.3-0.5-0.3c-0.3,0-0.5,0.1-0.5,0.4c0,0.3,0.3,0.4,0.5,0.4c0.2,0,0.5-0.1,0.5-0.3V78.8z"/>
		<path d="M21.8,76.7c0.3,0,0.6,0.1,0.8,0.2v0.8c-0.2-0.2-0.4-0.3-0.7-0.3c-0.4,0-0.8,0.3-0.8,0.8c0,0.5,0.3,0.8,0.8,0.8
			c0.3,0,0.5-0.1,0.7-0.3v0.8c-0.2,0.2-0.5,0.2-0.8,0.2c-0.9,0-1.5-0.6-1.5-1.6C20.2,77.3,20.9,76.7,21.8,76.7z"/>
		<path d="M23.8,78.5c0.1,0.5,0.4,0.7,0.9,0.7c0.3,0,0.6-0.1,0.9-0.3v0.7c-0.2,0.2-0.6,0.3-1,0.3c-0.9,0-1.5-0.6-1.5-1.5
			c0-0.9,0.6-1.6,1.4-1.6c0.9,0,1.3,0.6,1.3,1.5v0.3H23.8z M23.8,77.9H25c0-0.3-0.2-0.5-0.5-0.5C24.2,77.4,23.9,77.6,23.8,77.9z"/>
		<path d="M29.7,76.7c0.6,0,1,0.4,1,1.1v2h-0.8V78c0-0.3-0.1-0.5-0.4-0.5c-0.2,0-0.4,0.1-0.5,0.4v1.9h-0.8V78c0-0.3-0.1-0.5-0.4-0.5
			c-0.2,0-0.4,0.1-0.5,0.4v1.9h-0.8v-3h0.8V77c0.1-0.2,0.4-0.3,0.8-0.3c0.4,0,0.6,0.2,0.8,0.4C29,76.9,29.2,76.7,29.7,76.7z"/>
		<path d="M32,78.5c0.1,0.5,0.4,0.7,0.9,0.7c0.3,0,0.6-0.1,0.9-0.3v0.7c-0.2,0.2-0.6,0.3-1,0.3c-0.9,0-1.5-0.6-1.5-1.5
			c0-0.9,0.6-1.6,1.4-1.6c0.9,0,1.3,0.6,1.3,1.5v0.3H32z M32,77.9h1.1c0-0.3-0.2-0.5-0.5-0.5C32.4,77.4,32.1,77.6,32,77.9z"/>
		<path d="M34.6,76.8h0.8v0.3c0.2-0.2,0.5-0.3,0.8-0.3c0.7,0,1.1,0.4,1.1,1.1v2h-0.8V78c0-0.3-0.2-0.5-0.5-0.5
			c-0.3,0-0.5,0.2-0.5,0.4v1.9h-0.8V76.8z"/>
		<path d="M39.2,79.8h-0.8v-2.3h-0.6v-0.7h0.6V76h0.8v0.8h0.6v0.7h-0.6V79.8z"/>
		<path d="M42.8,78.4v1.4h-0.9v-4.1h1.7c0.9,0,1.4,0.5,1.4,1.3c0,0.9-0.6,1.3-1.4,1.3H42.8z M43.6,76.4h-0.8v1.2h0.8
			c0.4,0,0.7-0.3,0.7-0.6C44.2,76.7,44,76.4,43.6,76.4z"/>
		<path d="M47.2,77.9c0-0.3-0.2-0.5-0.7-0.5c-0.3,0-0.6,0.1-0.8,0.2V77c0.2-0.1,0.6-0.2,1-0.2c0.8,0,1.3,0.4,1.3,1.2v1.9h-0.8v-0.2
			c-0.1,0.1-0.4,0.2-0.7,0.2c-0.6,0-1.1-0.3-1.1-1c0-0.6,0.5-1,1.2-1c0.3,0,0.5,0.1,0.7,0.2V77.9z M47.2,78.8
			c-0.1-0.2-0.3-0.3-0.5-0.3c-0.3,0-0.5,0.1-0.5,0.4c0,0.3,0.3,0.4,0.5,0.4c0.2,0,0.5-0.1,0.5-0.3V78.8z"/>
		<path d="M50.5,77.6c-0.1-0.1-0.3-0.1-0.4-0.1c-0.3,0-0.5,0.1-0.6,0.4v1.9h-0.8v-3h0.8v0.3c0.1-0.2,0.4-0.4,0.7-0.4
			c0.1,0,0.3,0,0.3,0.1V77.6z"/>
		<path d="M52.3,79.8h-0.8v-2.3h-0.6v-0.7h0.6V76h0.8v0.8H53v0.7h-0.6V79.8z"/>
		<path d="M53.4,78.8c0.3,0.3,0.7,0.4,1,0.4c0.2,0,0.4-0.1,0.4-0.3c0-0.2-0.1-0.2-0.3-0.3l-0.3-0.1c-0.5-0.1-0.9-0.4-0.9-0.9
			c0-0.6,0.5-0.9,1.2-0.9c0.4,0,0.7,0.1,1,0.3v0.8c-0.3-0.2-0.6-0.4-0.9-0.4c-0.2,0-0.4,0.1-0.4,0.3c0,0.2,0.1,0.2,0.3,0.3l0.3,0.1
			c0.6,0.2,0.8,0.4,0.8,0.9c0,0.6-0.5,0.9-1.2,0.9c-0.4,0-0.8-0.1-1.1-0.3V78.8z"/>
	</g>
</g>
</svg>
